<svg id="Capa_1" enable-background="new 0 0 512 512" height="512" viewBox="0 0 512 512" width="512" xmlns="http://www.w3.org/2000/svg"><path d="m331 0h-225c-24.853 0-45 20.147-45 45v422c0 24.853 20.147 45 45 45h300c24.853 0 45-20.147 45-45v-347z" fill="#e4f2f9"/><path d="m331 0h-75v512h150c24.853 0 45-20.147 45-45v-347z" fill="#bde0f1"/><path d="m331 0v105c0 8.284 6.716 15 15 15h105z" fill="#77bee2"/><path d="m219.787 435.853c-3.839 0-7.678-1.464-10.606-4.394-5.858-5.857-5.858-15.355 0-21.213l127.279-127.28c8.5-8.5 13.18-19.8 13.18-31.82s-4.681-23.32-13.18-31.82-19.8-13.18-31.82-13.18-23.32 4.681-31.819 13.18l-106.068 106.068c-5.848 5.849-5.848 15.365 0 21.213 2.833 2.833 6.6 4.393 10.606 4.393 4.007 0 7.773-1.56 10.607-4.393l106.066-106.066c5.857-5.858 15.355-5.858 21.213 0s5.858 15.355 0 21.213l-106.065 106.066c-8.499 8.5-19.8 13.18-31.82 13.18s-23.32-4.681-31.82-13.18c-17.545-17.545-17.545-46.094 0-63.639l106.066-106.066c14.165-14.166 33-21.967 53.033-21.967s38.867 7.801 53.033 21.967 21.967 33 21.967 53.033-7.801 38.868-21.967 53.033l-127.278 127.278c-2.929 2.93-6.768 4.394-10.607 4.394z" fill="#49bbff"/><g fill="#0097ff"><path d="m379.64 251.147c0-20.033-7.801-38.867-21.967-53.033s-33-21.967-53.033-21.967c-18.032 0-35.081 6.339-48.64 17.933v42.068l16.82-16.82c8.499-8.5 19.799-13.18 31.819-13.18s23.32 4.681 31.82 13.18 13.18 19.8 13.18 31.82-4.681 23.32-13.18 31.82l-80.459 80.459v42.426l101.672-101.673c14.166-14.165 21.968-33 21.968-53.033z"/><path d="m315.246 240.541c-5.857-5.858-15.355-5.858-21.213 0l-38.033 38.033v42.426l59.246-59.246c5.858-5.858 5.858-15.356 0-21.213z"/></g></svg>