<svg id="Layer_1" height="512" viewBox="0 0 88 88" width="512" xmlns="http://www.w3.org/2000/svg" data-name="Layer 1"><path d="m34.75 67h18.5a2.5 2.5 0 0 1 0 5h-18.5a2.5 2.5 0 0 1 0-5zm9.25-51a22.49 22.49 0 0 1 13 40.85l-.09.06v2.75a4.69 4.69 0 0 1 -4.61 4.69h-16.49a4.69 4.69 0 0 1 -4.69-4.69v-2.75l-.12-.06a22.51 22.51 0 0 1 -9.48-18.12v-.23a22.46 22.46 0 0 1 22.48-22.5zm0 4.5a18 18 0 0 0 -9.44 33.27l1.06.66v5.21a.19.19 0 0 0 .19.19h16.38a.19.19 0 0 0 .19-.19v-5.19l1.06-.66a18 18 0 0 0 -9.44-33.27z" fill="#474747"/><path d="m35.25 33.15a13.89 13.89 0 0 0 3.09 13.5l.1.11-3.63 3.44a18.91 18.91 0 0 1 -4.4-18.31l.06-.2z" fill="#1b69fd"/></svg>