<?xml version="1.0"?>
<svg xmlns="http://www.w3.org/2000/svg" xmlns:xlink="http://www.w3.org/1999/xlink" xmlns:svgjs="http://svgjs.com/svgjs" version="1.1" width="512" height="512" x="0" y="0" viewBox="0 0 20 20" style="enable-background:new 0 0 512 512" xml:space="preserve" class=""><g><g xmlns="http://www.w3.org/2000/svg" fill="rgb(0,0,0)"><path d="m10 0h-.1c-4.2.1-7.7 3.5-7.9 7.7-.1 3 1.4 5.7 4 7.2v4.1c0 .3.2.6.4.8.2.1.6.3.9.1l6-2c.4-.1.7-.5.7-.9v-2.1c2.4-1.4 4-4.1 4-6.9 0-4.4-3.6-8-8-8zm2.6 13.4c-.3.2-.6.5-.6.9v2l-4 1.3v-3.3c0-.5-.5-.9-.6-.9-2.2-1-3.5-3.2-3.4-5.6.1-3.2 2.8-5.7 5.9-5.8h.1c3.3 0 6 2.7 6 6 0 2.3-1.3 4.4-3.4 5.4z" fill="#26f110" data-original="#000000" style="" class=""/><path d="m10 7.6-1.6-1.6-1.4 1.4 2 2v4.6h2v-4.6l2-2-1.4-1.4z" fill="#26f110" data-original="#000000" style="" class=""/></g></g></svg>
